<?xml version="1.0" encoding="utf-8"?>
<!-- Generator: Adobe Illustrator 25.4.1, SVG Export Plug-In . SVG Version: 6.00 Build 0)  -->
<svg version="1.1" id="Warstwa_1" xmlns="http://www.w3.org/2000/svg" xmlns:xlink="http://www.w3.org/1999/xlink" x="0px" y="0px"
	 viewBox="0 0 595.3 595.3" style="enable-background:new 0 0 595.3 595.3;" xml:space="preserve">
<style type="text/css">
	.st0{fill:#D2CDC8;}
	.st1{fill:#243E79;}
	.st2{fill:#F6DE3F;}
	.st3{fill:#72AA48;}
	.st4{fill:#E41C18;}
	.st5{fill:#FFFFFF;}
	.st6{fill:#4D5FA5;}
	.st7{fill:#1D254A;}
	.st8{fill:#222C55;}
	.st9{fill:#62AC4B;}
	.st10{fill:#E30C13;}
	.st11{fill:#3164A9;}
	.st12{fill:#1F284F;}
	.st13{fill:#085F2C;}
</style>
<g>
	<path class="st0" d="M562.1,292.8c0,149.3-121,270.3-270.3,270.3c-149.3,0-270.3-121-270.3-270.3c0-149.3,121-270.3,270.3-270.3
		C441,22.4,562.1,143.5,562.1,292.8z"/>
	
		<ellipse transform="matrix(0.7071 -0.7071 0.7071 0.7071 -121.5605 292.0466)" class="st1" cx="291.8" cy="292.8" rx="246.9" ry="246.9"/>
</g>
<g>
	<path class="st2" d="M279.9,74.8c0,0-22.6,48.3-10.3,115.7c12.5,68.1,24.8,88.8,42.6,119.8c17.7,31,46.2,69,67.7,86.1
		c22.1,17.6,23.4,15.8,23.4,15.8s23.1-1.3,38.9-5.1c15.8-3.8,60.1-15.8,57.6-60.8c0,0,4.7-47.2-33.2-51.9c-38-4.7-40-5.3-49.1,0.4
		c-9,5.7-14.1-2.3-14.1-2.3s1.9-58.4-18-98.3c-19.9-39.9-45.6-75-62.7-94.5C305.7,80.3,288,64.7,279.9,74.8z"/>
	
		<ellipse transform="matrix(0.7071 -0.7071 0.7071 0.7071 -242.2412 348.8322)" class="st2" cx="300" cy="466.8" rx="64.1" ry="64.1"/>
	<path class="st2" d="M74.4,331.5c0,0,49.4,67.8,98.9,83.1c51,15.7,74.8,12.8,74.8,12.8h38l37-8.5l12.3-3.9l19.2,18.6
		c0,0-40.8-59.2-78.8-83.4c-28.3-18-57.9-25-96.2-30.8c-35.2-5.3-69.6-1.4-84.5,0C64.2,322.2,74.4,331.5,74.4,331.5z"/>
	<path class="st2" d="M508.9,347.5c0,40.4-32.7,73.1-73.1,73.1c-40.3,0-73.1-32.7-73.1-73.1c0-40.3,32.7-73.1,73.1-73.1
		C476.2,274.4,508.9,307.2,508.9,347.5z"/>
	<path class="st2" d="M266.4,315.9l21.2,0.7c0,0,66.3,72.2,79.8,84.4c13.5,12.2,18.1,15.2,18.1,15.2s3.7,2.8,1.6,5.1
		c-1.4,1.5-4.4,5.1-11.1-0.1c-2.8-2.2-60.4-59.4-71.9-69.3C292.5,342.1,266.4,315.9,266.4,315.9z"/>
</g>
<path class="st3" d="M341.9,471.1c0,26.6-20.5,48.1-45.9,48.1c-25.3,0-45.9-21.5-45.9-48.1c0-26.6,20.5-48.1,45.9-48.1
	C321.4,423,341.9,444.5,341.9,471.1z"/>
<path class="st3" d="M497,348c0,29.4-23.1,53.2-51.6,53.2c-28.5,0-51.6-23.8-51.6-53.2c0-29.4,23.1-53.2,51.6-53.2
	C473.9,294.8,497,318.7,497,348z"/>
<path class="st4" d="M485,353.7c0,24.3-18.3,44-40.8,44c-22.6,0-40.8-19.7-40.8-44c0-24.3,18.3-44,40.8-44
	C466.7,309.7,485,329.4,485,353.7z"/>
<path class="st4" d="M338.1,468.6c0,22-17.1,39.9-38.3,39.9c-21.2,0-38.3-17.9-38.3-39.9c0-22,17.1-39.9,38.3-39.9
	C321,428.7,338.1,446.5,338.1,468.6z"/>
<ellipse transform="matrix(0.2268 -0.9739 0.9739 0.2268 3.9631 701.5541)" class="st5" cx="443.8" cy="348.3" rx="30.4" ry="30.4"/>
<path class="st5" d="M321.6,470.2c0,14.9-11.5,26.9-25.6,26.9c-14.2,0-25.6-12-25.6-26.9c0-14.9,11.5-26.9,25.6-26.9
	C310.2,443.2,321.6,455.3,321.6,470.2z"/>
<ellipse class="st6" cx="442.9" cy="347.6" rx="20.9" ry="19.5"/>
<ellipse class="st6" cx="298.1" cy="472.8" rx="18" ry="19.2"/>
<path class="st7" d="M307.4,479.5c0,5.2-5.1,9.3-11.4,9.3c-6.3,0-11.4-4.2-11.4-9.3c0-5.2,5.1-9.3,11.4-9.3
	C302.3,470.2,307.4,474.3,307.4,479.5z"/>
<path class="st8" d="M448.7,351.6c-5.9,2.1-12.2-0.4-14-5.6c-1.8-5.2,1.6-11,7.5-13.1c5.9-2.1,12.2,0.4,14,5.6
	C458,343.7,454.6,349.5,448.7,351.6z"/>
<polygon class="st5" points="213.4,503.4 200.4,501.3 191.4,510.9 189.3,497.9 177.5,492.3 189.2,486.3 190.9,473.3 200.2,482.6 
	213.1,480.2 207.1,491.9 "/>
<polygon class="st5" points="171.5,477.7 158.6,475.7 149.5,485.2 147.5,472.3 135.6,466.6 147.3,460.7 149,447.6 158.3,456.9 
	171.2,454.5 165.2,466.2 "/>
<polygon class="st5" points="135.6,440.2 122.6,438.1 113.6,447.6 111.6,434.7 99.7,429 111.4,423.1 113.1,410.1 122.4,419.3 
	135.3,416.9 129.3,428.6 "/>
<g>
	<path class="st5" d="M72.3,292.7c-3.4-1.8-7.6-4.1-11.6-4.3c-3.4-0.2-6-2-5.7-6.4c0.3-4.4,4.9-6.8,8.3-8.6c1.5-0.8,17.3-7.4,21.5-9
		c3.9-1.4,1.8-4.3,4.6-4.1c3.7,0.2,3.1,7.3,2.9,9.8c-0.4,7.2-0.7,11.5-3.8,11.3c-2.4-0.1-1.3-3.1-3.1-3.2c-2.3-0.1-2.5,1.1-3,9.2
		c-0.2,2.6-0.1,4.2,2.3,4.3c2,0.1,0.8-3.2,3.4-3c3,0.2,2.7,5.6,2.6,7.6c-0.4,7.2-1.8,7.7-3.4,7.6c-2.4-0.1-1.5-2.8-3.2-4.4
		c-1.3-1.2-3.6-2.4-5.2-3.2L72.3,292.7z M76.5,282.5c0-0.5,0.2-2-0.5-2c-0.8,0-3.4,1.3-4.2,1.6c-0.8,0.4-2.7,1.1-2.8,2.2
		c-0.1,1.2,2.9,2.2,3.4,2.5c0.5,0.2,2.4,1.2,3,1.2c0.8,0,0.8-1.2,0.8-1.8L76.5,282.5z"/>
	<path class="st5" d="M95.4,254.2c-0.7,3.3-3.8,5.4-7.1,4.7c-3.3-0.7-5.4-3.8-4.7-7.1c0.7-3.3,3.9-5.4,7.1-4.8
		C93.9,247.7,96.1,250.9,95.4,254.2z"/>
	<path class="st5" d="M93.9,216.7c10,3.6,7.6,14.4,6.7,17c-1.8,5.5-6.8,13-13.6,10.8c-3.1-1-5-4-4-7.2c0.9-2.8,3.5-5,6.5-4
		c0.8,0.3,1.5,0.9,2.1,1.1c1.2,0.4,2.2-0.4,2.4-1.5c1.3-5.8-9.3-6.3-17.8-9.5c-5.2-2-3.9,3.5-7.1,2.4c-0.9-0.3-3.8-1.7-0.8-11
		c2.9-9,5.5-9.4,6.8-8.9c2.5,0.8,0.1,4.2,4.1,5.6L93.9,216.7z"/>
	<path class="st5" d="M109.8,209.8c-1.4,3.1-5,4.4-8,3c-3.1-1.4-4.4-5-3-8c1.4-3.1,5-4.4,8-3C109.9,203.1,111.2,206.7,109.8,209.8z"
		/>
	<path class="st5" d="M106.7,183.4c-0.7-0.1-2.3-0.5-2.8,0.3c-0.8,1.3,5,4.5,6.4,5.4c4.5,2.9,4.1-1.1,6.4,0.3
		c2.4,1.6-0.4,6.1-1.5,7.8c-1,1.5-3.6,5.2-5.8,3.8c-2.4-1.6,1.2-2.8-2-5.4c-3.3-2.6-7-5.5-13.1-9.5c-2.5-1.6-3.9-2.3-5.2-2.5
		c-1.2-0.2-3,2.1-4.7,0.9c-2.4-1.6-0.5-5.9,1.7-9.2c3.2-4.9,4-4.3,6.9-4.2c3.4,0.1,12,2,13.7,0.4c1.1-1.1-2.8-6.1-4.6-9.5
		c-2.6-4.7-3.8-5.6-0.2-11.1c1.2-1.9,4.1-6,6.7-4.3c1.7,1.1,0.8,3.2,1.9,4.6c1,1.1,5.7,4.6,7.6,5.8c0.6,0.4,5.4,3.2,9.4,5.5
		c3.2,1.9,4.1-1.1,6,0.1c2.8,1.8-1,7.5-2.2,9.4c-1.1,1.7-4.7,7.6-7.4,5.9c-1.5-1-0.5-3-1.7-4.2c-0.6-0.6-7.3-6.2-8.3-4.7
		c-0.8,1.3,2,5.1,3.5,7.5c1.3,2.2,5.2,6.8,4.1,8c-0.5,0.6-0.7,1-8-0.1L106.7,183.4z"/>
	<path class="st5" d="M123.8,151.8c-7.5-7.5-6.9-18.8,0.8-26.6c9.8-9.8,22.1-5,26.7-0.4c7.7,7.6,6,19.4-1.2,26.6
		C142.6,158.9,131.4,159.3,123.8,151.8z M128.2,132.1c-2,2-0.9,5,0.8,6.8c3,3,13.7,9.3,17.5,5.5c2.2-2.2,1.2-5-0.7-6.9
		C142.6,134.2,132.4,127.9,128.2,132.1z"/>
	<path class="st5" d="M164,93.9c1.8-1.2,2.5-2,3-2.5c0.5-0.6,0.7-0.9,1.5-1.5c1.6-1.1,7.1-0.2,10.2,4.2c1.4,2.1,1.3,4.2-0.8,5.6
		c-3.6,2.5-6.9-2.4-9-1c-1.6,1.1,0.1,3.2,0.3,3.6l8.8,12.7c3.4,4.9,5.6-0.1,7.6,2.8c0.9,1.3,1.4,3.6-6.4,9c-2.1,1.5-9.8,6.9-12,3.7
		c-1.5-2.2,1.6-3.1,1.4-5.2c-0.2-1.1-1.7-3.7-2.4-4.8l-6-9.3c-2.8-4.4-3.7-3.8-4.2-3.4c-1.9,1.3,0.6,6.8-2.7,9.1
		c-1.6,1.1-3.6,0.3-4.6-1.2c-2.4-3.5-2.6-10.1-0.3-11.8c0.3-0.2,0.8-0.4,1.7-0.8c0.9-0.4,2.1-1,3.8-2.2L164,93.9z"/>
	<path class="st5" d="M209.8,84.8c-0.9,3.4-0.4,4.9,1,8.1c1.9,4.2,2.9,5.9,3.7,6.6c1.2,1,3.5-0.3,4.5,1.8c1.5,3.3-5.8,6.5-8,7.5
		c-9,4-11.1,2.5-11.6,1.2c-1.1-2.5,1.9-2.7,1.9-5c0-1.3-0.7-3.5-2.7-7.9c-1.2-2.6-2-3.3-4.5-4.6l-7.8-3.7c-3.4-1.6-6.1,0.5-7.1-1.8
		c-0.5-1.1-1.7-3,9-7.7c9.5-4.3,10.2-2.4,10.7-1.4c0.5,1.2-0.5,2.2-0.1,3.2c0.4,1,3.6,3.1,4.7,2.6c1.2-0.5,2-3.8,1.6-4.9
		c-0.6-1.3-1.9-0.8-2.7-2.5c-1.2-2.7,4.1-5.1,5.8-5.9c5.7-2.5,7.5-2.5,8.4-0.5c1.3,2.9-2.7,2.7-3.9,6.2L209.8,84.8z"/>
	<path class="st5" d="M234.2,99.3c-1.6,0.4-4,1.2-4.6-1.1c-0.8-3,3.7-1.5,2.3-7.1c-0.8-3.6-1.7-6.7-2.4-9.5
		c-0.8-2.9-1.7-5.6-2.5-8.2c-1.2-4-4.9-0.8-5.6-3.5c-0.9-3.5,6.6-5.7,9-6.4c9.8-2.3,10.6-1,11.1,0.6c0.7,2.8-3.7,1.7-2.4,6.2
		l4.1,15.4c0.9,3.5,2,5,5.4,4.1c8.2-2.2,3.6-8.2,6.8-9c2.2-0.6,3.6,1.5,4.1,3.4c1,3.8-0.4,9.3-2.7,9.9c-0.9,0.2-1.6,0.2-2.5,0.3
		c-1,0.1-2.1,0.2-3.7,0.6L234.2,99.3z"/>
</g>
<g>
	<path class="st9" d="M322.7,266.2c0,0-4.9-4.8-6.5-6.7c-1.6-1.9-4.7-5.9-5.9-7.6c-1.2-1.7-4.3-6.8-4.9-7.8c-0.6-1-5-9.6-5.8-11.3
		c-0.8-1.8-4.3-10.2-5.2-12.9c-0.9-2.7-3.2-9.7-3.7-11.5c-0.5-1.8-1.8-6.8-2.1-8.2c-0.3-1.4-1.6-7.6-2-9.1c-0.3-1.5-1.4-7.6-1.7-9.3
		c-0.3-1.7-1.5-8.5-1.7-10c-0.2-1.5-1.4-9.5-1.6-10.9c-0.2-1.4-0.6-4.8-0.8-6.3c-0.2-1.5-0.6-5.7-0.8-7.7c-0.2-2-0.8-9.5-0.9-11.6
		c-0.1-2.1-0.4-6.2-0.4-7.9c0-1.8-0.1-7.5-0.1-10.6c0.1-3.1,0.1-4.2,0.2-7.1c0.1-2.9,0.6-6.2,0.7-7.2c0.1-1,0.7-3.9,1-5.4
		c0.3-1.5,1.1-4.1,1.5-5c0.4-0.9,1-2.6,1.9-3.5c0.9-0.9,2.3-1.9,2.6-2c0.3-0.1,1.5-0.4,2.3-0.2c0.8,0.2,2.8,0.7,3.8,1.1
		c1.1,0.4,6.9,4.3,9.3,6.6c2.4,2.3,8.1,8,10.2,10.5c2.1,2.4,12.1,14.9,15.3,19.5c3.2,4.7,11.7,17.1,13.5,20
		c1.8,2.9,10.2,17.1,12.1,20.4c1.9,3.3,7.5,13.8,9.5,18.4c2,4.6,5.6,13.7,7,18c1.3,4.3,4.4,15.8,5.1,22c0.7,6.2,1.3,14.2,0.9,18.7
		c-0.4,4.6-1.4,11.8-3.2,15.7c-1.8,3.9-2.9,6.9-5,9.2c-2.1,2.3-2.4,3.6-5.7,5.5c-3.3,1.9-7,3.8-11.3,4.4c-4.3,0.6-6,0.2-9-0.4
		c-2.9-0.6-9.9-3.4-13.2-5.8C324.8,267.8,322.7,266.2,322.7,266.2z"/>
	<path class="st10" d="M318.2,238.5c0,0-3.9-3.9-5.2-5.4c-1.3-1.5-3.8-4.7-4.7-6.1c-0.9-1.4-3.5-5.4-3.9-6.2c-0.5-0.8-4-7.6-4.7-9.1
		c-0.6-1.4-3.4-8.1-4.2-10.3c-0.7-2.2-2.5-7.7-2.9-9.2c-0.4-1.4-1.4-5.5-1.7-6.6c-0.3-1.1-1.3-6-1.6-7.2c-0.2-1.2-1.1-6.1-1.4-7.4
		c-0.2-1.3-1.2-6.8-1.4-8c-0.2-1.2-1.1-7.6-1.3-8.7c-0.1-1.1-0.5-3.8-0.6-5.1c-0.1-1.2-0.5-4.6-0.6-6.2c-0.1-1.6-0.6-7.6-0.7-9.3
		c-0.1-1.7-0.3-4.9-0.3-6.3c0-1.4-0.1-6-0.1-8.5c0.1-2.5,0-3.4,0.1-5.7c0.1-2.4,0.5-4.9,0.6-5.7c0.1-0.8,0.5-3.1,0.8-4.3
		c0.3-1.2,0.9-3.3,1.2-4c0.3-0.7,0.8-2.1,1.5-2.8c0.7-0.7,1.8-1.5,2.1-1.6c0.2-0.1,1.2-0.3,1.9-0.2c0.6,0.1,2.2,0.6,3,0.9
		c0.8,0.4,5.5,3.4,7.4,5.3c1.9,1.9,6.5,6.4,8.1,8.4c1.6,1.9,9.7,11.9,12.3,15.6c2.6,3.7,9.3,13.7,10.8,16c1.5,2.4,8.2,13.7,9.7,16.3
		c1.5,2.6,6,11,7.6,14.7c1.6,3.7,4.5,11,5.6,14.4c1.1,3.5,3.5,12.7,4.1,17.6c0.6,4.9,1,11.3,0.7,15c-0.3,3.7-1.1,9.4-2.5,12.6
		c-1.4,3.1-2.4,5.5-4,7.3c-1.7,1.8-1.9,2.9-4.6,4.4c-2.7,1.5-5.6,3-9,3.5c-3.4,0.5-4.8,0.2-7.2-0.3c-2.4-0.5-7.9-2.7-10.6-4.6
		C319.8,239.8,318.2,238.5,318.2,238.5z"/>
	<path class="st5" d="M316.3,218.7c0,0-3.2-3.1-4.2-4.3c-1-1.2-3-3.8-3.8-4.9c-0.7-1.1-2.8-4.3-3.2-5c-0.4-0.6-3.2-6.1-3.7-7.3
		c-0.5-1.1-2.8-6.5-3.4-8.3c-0.6-1.8-2-6.2-2.3-7.4c-0.3-1.2-1.1-4.4-1.4-5.2c-0.2-0.9-1.1-4.8-1.3-5.8c-0.2-1-0.9-4.9-1.1-5.9
		c-0.2-1.1-0.9-5.4-1.1-6.4c-0.1-1-0.9-6.1-1-7c-0.1-0.9-0.4-3.1-0.5-4c-0.1-1-0.4-3.7-0.5-4.9c-0.1-1.3-0.5-6.1-0.6-7.4
		c-0.1-1.4-0.3-3.9-0.3-5.1c0-1.1-0.1-4.8,0-6.8c0-2,0-2.7,0.1-4.6c0.1-1.9,0.4-4,0.5-4.6c0.1-0.6,0.4-2.5,0.6-3.5
		c0.2-1,0.7-2.6,1-3.2c0.2-0.6,0.7-1.7,1.2-2.3c0.6-0.6,1.5-1.2,1.7-1.3c0.2-0.1,1-0.2,1.5-0.1c0.5,0.1,1.8,0.4,2.4,0.7
		c0.7,0.3,4.4,2.7,6,4.2c1.5,1.5,5.2,5.2,6.5,6.7c1.3,1.5,7.7,9.5,9.8,12.5c2.1,3,7.5,10.9,8.6,12.8c1.2,1.9,6.5,11,7.7,13
		c1.2,2.1,4.8,8.8,6.1,11.8c1.3,2.9,3.6,8.8,4.5,11.5c0.9,2.8,2.8,10.1,3.3,14.1c0.5,4,0.8,9.1,0.6,12c-0.2,2.9-0.9,7.5-2,10
		c-1.1,2.5-1.9,4.4-3.2,5.9c-1.3,1.5-1.5,2.3-3.6,3.5c-2.1,1.2-4.5,2.4-7.2,2.8c-2.7,0.4-3.9,0.1-5.7-0.2c-1.9-0.4-6.3-2.2-8.5-3.7
		C317.5,219.8,316.3,218.7,316.3,218.7z"/>
	<path class="st11" d="M316.8,207.9c0,0-2.5-2.5-3.3-3.4c-0.8-1-2.4-3-3-3.9c-0.6-0.9-2.2-3.5-2.5-4c-0.3-0.5-2.6-4.9-3-5.8
		c-0.4-0.9-2.2-5.2-2.7-6.6c-0.5-1.4-1.6-5-1.9-5.9c-0.3-0.9-0.9-3.5-1.1-4.2c-0.2-0.7-0.8-3.9-1-4.6c-0.2-0.8-0.7-3.9-0.9-4.7
		c-0.1-0.9-0.8-4.4-0.9-5.1c-0.1-0.8-0.7-4.9-0.8-5.6c-0.1-0.7-0.3-2.5-0.4-3.2c-0.1-0.8-0.3-2.9-0.4-3.9c-0.1-1-0.4-4.9-0.5-6
		c-0.1-1.1-0.2-3.2-0.2-4.1c0-0.9-0.1-3.8,0-5.4c0-1.6,0-2.1,0.1-3.7c0.1-1.5,0.3-3.2,0.4-3.7c0.1-0.5,0.3-2,0.5-2.8
		c0.2-0.8,0.6-2.1,0.8-2.6c0.2-0.5,0.5-1.3,1-1.8c0.4-0.5,1.2-1,1.3-1c0.2,0,0.8-0.2,1.2-0.1c0.4,0.1,1.4,0.4,2,0.6
		c0.5,0.2,3.5,2.2,4.8,3.4c1.2,1.2,4.1,4.1,5.2,5.4c1.1,1.2,6.2,7.6,7.8,10c1.7,2.4,6,8.7,6.9,10.2c0.9,1.5,5.2,8.8,6.2,10.4
		c1,1.7,3.8,7.1,4.8,9.4c1,2.4,2.9,7,3.6,9.2c0.7,2.2,2.2,8.1,2.6,11.3c0.4,3.2,0.6,7.3,0.5,9.6c-0.2,2.3-0.7,6-1.6,8
		c-0.9,2-1.5,3.5-2.6,4.7c-1.1,1.2-1.2,1.8-2.9,2.8c-1.7,1-3.6,1.9-5.8,2.3c-2.2,0.3-3.1,0.1-4.6-0.2c-1.5-0.3-5.1-1.7-6.8-3
		C317.8,208.7,316.8,207.9,316.8,207.9z"/>
	<path class="st12" d="M322.2,189.8c5.9-4,13.3-3.3,16.5,1.5c3.2,4.8,1,11.8-4.9,15.8c-5.9,4-13.3,3.3-16.5-1.5
		C314.1,200.9,316.3,193.8,322.2,189.8z"/>
</g>
<g>
	<path class="st9" d="M203.6,393.4c0,0-4.9,0.5-6.7,0.5c-1.8,0-5.4-0.1-6.9-0.3c-1.5-0.2-5.7-0.8-6.6-0.9c-0.8-0.1-7.6-1.7-9-2
		c-1.4-0.4-7.6-2.4-9.5-3.1c-1.9-0.8-6.8-2.8-8-3.3c-1.2-0.6-4.6-2.2-5.5-2.6c-0.9-0.4-4.9-2.6-5.9-3.1c-1-0.5-4.8-2.7-5.9-3.4
		c-1.1-0.6-5.4-3.1-6.3-3.7c-0.9-0.6-5.9-3.6-6.7-4.2c-0.8-0.6-2.9-1.9-3.8-2.5c-0.9-0.6-3.4-2.3-4.6-3.1c-1.2-0.8-5.6-4-6.8-4.9
		c-1.2-0.9-3.6-2.6-4.6-3.5c-1-0.8-4.2-3.4-5.9-4.9c-1.7-1.5-2.3-2-3.8-3.4c-1.6-1.4-3.1-3.2-3.6-3.7c-0.5-0.5-1.8-2.2-2.5-3.1
		c-0.7-0.9-1.7-2.5-2.1-3.2c-0.3-0.6-1-1.8-1.1-2.7c-0.1-0.9,0-2.1,0.1-2.3c0.1-0.2,0.5-1,1-1.4c0.4-0.4,1.7-1.2,2.4-1.6
		c0.7-0.4,5.6-1.8,8-2c2.4-0.3,8.2-0.7,10.5-0.7c2.3,0,13.8,0.2,17.9,0.6c4.1,0.4,14.8,1.5,17.3,1.9c2.5,0.4,14.2,2.3,16.8,2.8
		c2.7,0.5,11.1,2.3,14.5,3.3c3.4,1,10.2,3.2,13.2,4.5c3,1.3,10.7,4.9,14.5,7.4c3.7,2.5,8.4,5.9,10.7,8.2c2.4,2.3,5.8,6.2,7.2,9
		c1.4,2.8,2.4,4.8,2.7,7c0.3,2.2,0.9,3,0.4,5.7c-0.5,2.7-1.2,5.6-2.8,8.2c-1.6,2.6-2.7,3.4-4.4,4.8c-1.7,1.4-6.4,3.9-9.3,4.6
		C205.4,393.1,203.6,393.4,203.6,393.4z"/>
	<path class="st10" d="M186.2,383c0,0-4,0.4-5.4,0.4c-1.4,0-4.3-0.1-5.5-0.2c-1.2-0.1-4.6-0.6-5.3-0.7c-0.7-0.1-6.1-1.3-7.2-1.6
		c-1.1-0.3-6.1-1.9-7.6-2.5c-1.6-0.6-5.4-2.2-6.4-2.7c-1-0.4-3.7-1.7-4.4-2.1c-0.7-0.4-3.9-2.1-4.7-2.5c-0.8-0.4-3.9-2.2-4.7-2.7
		c-0.8-0.5-4.3-2.5-5-3c-0.7-0.5-4.7-2.9-5.4-3.4c-0.7-0.4-2.3-1.5-3.1-2c-0.7-0.5-2.8-1.8-3.7-2.5c-0.9-0.7-4.5-3.2-5.5-3.9
		c-1-0.7-2.9-2.1-3.6-2.8c-0.8-0.6-3.4-2.7-4.7-3.9c-1.3-1.2-1.8-1.6-3.1-2.7c-1.2-1.1-2.5-2.6-2.9-3c-0.4-0.4-1.5-1.7-2-2.5
		c-0.5-0.7-1.4-2-1.6-2.5c-0.3-0.5-0.8-1.4-0.9-2.2c-0.1-0.7,0-1.7,0.1-1.9c0.1-0.2,0.4-0.8,0.8-1.1c0.4-0.3,1.3-1,1.9-1.3
		c0.6-0.3,4.4-1.4,6.4-1.6c1.9-0.2,6.6-0.6,8.4-0.6c1.8,0,11,0.2,14.3,0.5c3.3,0.3,11.9,1.2,13.8,1.5c2,0.3,11.3,1.9,13.5,2.2
		c2.1,0.4,8.8,1.8,11.6,2.7c2.8,0.8,8.1,2.6,10.5,3.6c2.4,1,8.6,4,11.6,5.9c3,2,6.7,4.7,8.6,6.6c1.9,1.9,4.7,5,5.7,7.2
		c1.1,2.2,1.9,3.9,2.2,5.6c0.2,1.8,0.7,2.4,0.3,4.6c-0.4,2.2-0.9,4.5-2.2,6.6c-1.3,2.1-2.1,2.7-3.5,3.8c-1.3,1.1-5.2,3.1-7.4,3.7
		C187.7,382.8,186.2,383,186.2,383z"/>
	<path class="st5" d="M178.8,375.3c0,0-3.2,0.3-4.3,0.3c-1.1,0-3.5-0.1-4.4-0.2c-1-0.1-3.7-0.5-4.2-0.6c-0.5-0.1-4.9-1.1-5.7-1.3
		c-0.9-0.2-4.9-1.5-6.1-2c-1.2-0.5-4.3-1.8-5.1-2.1c-0.8-0.4-2.9-1.4-3.5-1.7c-0.6-0.3-3.2-1.7-3.8-2c-0.6-0.3-3.1-1.8-3.8-2.1
		c-0.7-0.4-3.4-2-4-2.4c-0.6-0.4-3.8-2.3-4.3-2.7c-0.5-0.4-1.9-1.2-2.5-1.6c-0.6-0.4-2.2-1.5-3-2c-0.7-0.5-3.6-2.5-4.4-3.1
		c-0.8-0.6-2.3-1.7-2.9-2.2c-0.6-0.5-2.7-2.2-3.8-3.1c-1.1-0.9-1.5-1.3-2.5-2.2c-1-0.9-2-2-2.3-2.4c-0.3-0.3-1.2-1.4-1.6-2
		c-0.4-0.6-1.1-1.6-1.3-2c-0.2-0.4-0.6-1.1-0.7-1.7c-0.1-0.6,0-1.4,0.1-1.5c0.1-0.1,0.3-0.6,0.6-0.9c0.3-0.2,1.1-0.8,1.5-1
		c0.5-0.2,3.5-1.1,5.1-1.3c1.5-0.2,5.2-0.5,6.7-0.5c1.5,0,8.8,0.2,11.4,0.4c2.6,0.2,9.5,1,11.1,1.2c1.6,0.2,9.1,1.5,10.8,1.8
		c1.7,0.3,7.1,1.5,9.3,2.1c2.2,0.7,6.5,2.1,8.4,2.9c1.9,0.8,6.9,3.2,9.3,4.7c2.4,1.6,5.4,3.8,6.9,5.2c1.5,1.5,3.7,4,4.6,5.8
		c0.9,1.8,1.5,3.1,1.7,4.5c0.2,1.4,0.6,1.9,0.3,3.7c-0.3,1.7-0.7,3.6-1.8,5.3c-1.1,1.7-1.7,2.2-2.8,3c-1.1,0.9-4.1,2.5-6,2.9
		C180,375,178.8,375.3,178.8,375.3z"/>
	<path class="st11" d="M168.7,369.6c0,0-2.5,0.2-3.4,0.2c-0.9,0-2.8-0.1-3.5-0.1c-0.8-0.1-2.9-0.4-3.4-0.5c-0.4-0.1-3.9-0.8-4.6-1
		c-0.7-0.2-3.9-1.2-4.9-1.6c-1-0.4-3.5-1.4-4.1-1.7c-0.6-0.3-2.3-1.1-2.8-1.3c-0.5-0.2-2.5-1.3-3-1.6c-0.5-0.3-2.5-1.4-3-1.7
		c-0.5-0.3-2.8-1.6-3.2-1.9c-0.5-0.3-3-1.9-3.4-2.1c-0.4-0.3-1.5-1-2-1.3c-0.5-0.3-1.8-1.2-2.4-1.6c-0.6-0.4-2.9-2-3.5-2.5
		c-0.6-0.5-1.8-1.4-2.3-1.8c-0.5-0.4-2.1-1.7-3-2.5c-0.9-0.8-1.2-1-2-1.7c-0.8-0.7-1.6-1.6-1.8-1.9c-0.3-0.3-0.9-1.1-1.3-1.6
		c-0.4-0.5-0.9-1.3-1.1-1.6c-0.2-0.3-0.5-0.9-0.5-1.4c-0.1-0.5,0-1.1,0.1-1.2c0-0.1,0.3-0.5,0.5-0.7c0.2-0.2,0.9-0.6,1.2-0.8
		c0.4-0.2,2.8-0.9,4.1-1c1.2-0.1,4.2-0.4,5.4-0.4c1.2,0,7.1,0.1,9.2,0.3c2.1,0.2,7.6,0.8,8.8,1c1.3,0.2,7.2,1.2,8.6,1.4
		c1.4,0.2,5.7,1.2,7.4,1.7c1.8,0.5,5.2,1.7,6.7,2.3c1.5,0.7,5.5,2.5,7.4,3.8c1.9,1.3,4.3,3,5.5,4.2c1.2,1.2,3,3.2,3.7,4.6
		c0.7,1.4,1.2,2.5,1.4,3.6c0.1,1.1,0.5,1.5,0.2,2.9c-0.2,1.4-0.6,2.9-1.4,4.2c-0.8,1.3-1.4,1.8-2.2,2.4c-0.9,0.7-3.3,2-4.8,2.4
		C169.7,369.4,168.7,369.6,168.7,369.6z"/>
	<path class="st12" d="M161.5,353.5c3.8-3.4,9.1-3.7,11.9-0.7c2.7,3,1.9,8.3-1.9,11.7c-3.8,3.4-9.1,3.8-11.9,0.7
		C156.8,362.2,157.7,356.9,161.5,353.5z"/>
</g>
<path class="st13" d="M372.2,282.9c-1.7,5.3-1,2.4-5.8,11.9c-5.4,10.7-17.7,17.6-20.9,27.7c-3.1,10,0.4,12.2,2.1,17.5
	c2,6.4,10.9,19.9,10.9,19.9s-7.8-23.1,9.5-37.1c13.4-10.8,15.4-19.5,11.7-30.1c-3.9-11.1-6.9-16.7-6.9-16.7"/>
<path class="st13" d="M244.3,386.1c5.4,0.6,2.5,0.1,12.7-0.2c11.5-0.3,21.6-7.8,31.8-6.5c10.2,1.3,11.1,5.1,15.4,8.5
	c5.3,4.2,14.9,16.7,14.9,16.7s-18.8-15.4-37-6.5c-14.1,6.9-22.6,5.1-31.2-2c-9-7.5-13.2-12.1-13.2-12.1"/>
</svg>
